<mxfile host="app.diagrams.net" modified="2024-06-28T07:03:31.531Z" agent="Mozilla/5.0 (Windows NT 10.0; Win64; x64) AppleWebKit/537.36 (KHTML, like Gecko) Chrome/126.0.0.0 Safari/537.36" etag="mhJOzyWCYJ6q-Ce35Oza" version="24.6.2" type="onedrive">
  <diagram name="Page-1" id="l5qE-sKzk2rBYc72pz4_">
    <mxGraphModel grid="1" page="1" gridSize="10" guides="1" tooltips="1" connect="1" arrows="1" fold="1" pageScale="1" pageWidth="850" pageHeight="1100" math="0" shadow="0">
      <root>
        <mxCell id="0" />
        <mxCell id="1" parent="0" />
        <mxCell id="exKizZ0AfnU7suD0H047-1" value="Project_id" style="rounded=1;whiteSpace=wrap;html=1;" vertex="1" parent="1">
          <mxGeometry x="40" y="78" width="120" height="60" as="geometry" />
        </mxCell>
        <mxCell id="exKizZ0AfnU7suD0H047-2" value="Projects table" style="text;html=1;align=center;verticalAlign=middle;resizable=0;points=[];autosize=1;strokeColor=none;fillColor=none;" vertex="1" parent="1">
          <mxGeometry x="30" y="48" width="100" height="30" as="geometry" />
        </mxCell>
        <mxCell id="exKizZ0AfnU7suD0H047-3" value="Total_fee" style="rounded=1;whiteSpace=wrap;html=1;" vertex="1" parent="1">
          <mxGeometry x="740" y="78" width="120" height="60" as="geometry" />
        </mxCell>
        <mxCell id="exKizZ0AfnU7suD0H047-4" value="ERF_num" style="rounded=1;whiteSpace=wrap;html=1;" vertex="1" parent="1">
          <mxGeometry x="600" y="78" width="120" height="60" as="geometry" />
        </mxCell>
        <mxCell id="exKizZ0AfnU7suD0H047-5" value="Address" style="rounded=1;whiteSpace=wrap;html=1;" vertex="1" parent="1">
          <mxGeometry x="460" y="78" width="120" height="60" as="geometry" />
        </mxCell>
        <mxCell id="exKizZ0AfnU7suD0H047-6" value="Building_type" style="rounded=1;whiteSpace=wrap;html=1;" vertex="1" parent="1">
          <mxGeometry x="320" y="78" width="120" height="60" as="geometry" />
        </mxCell>
        <mxCell id="exKizZ0AfnU7suD0H047-7" value="Project_name" style="rounded=1;whiteSpace=wrap;html=1;" vertex="1" parent="1">
          <mxGeometry x="180" y="78" width="120" height="60" as="geometry" />
        </mxCell>
        <mxCell id="exKizZ0AfnU7suD0H047-8" value="Struct_engineer_id" style="rounded=1;whiteSpace=wrap;html=1;" vertex="1" parent="1">
          <mxGeometry x="40" y="200" width="120" height="60" as="geometry" />
        </mxCell>
        <mxCell id="exKizZ0AfnU7suD0H047-9" value="Structural engineers table" style="text;html=1;align=center;verticalAlign=middle;resizable=0;points=[];autosize=1;strokeColor=none;fillColor=none;" vertex="1" parent="1">
          <mxGeometry x="30" y="170" width="160" height="30" as="geometry" />
        </mxCell>
        <mxCell id="exKizZ0AfnU7suD0H047-10" value="Contact_info" style="rounded=1;whiteSpace=wrap;html=1;" vertex="1" parent="1">
          <mxGeometry x="320" y="200" width="120" height="60" as="geometry" />
        </mxCell>
        <mxCell id="exKizZ0AfnU7suD0H047-11" value="Engineer_name" style="rounded=1;whiteSpace=wrap;html=1;" vertex="1" parent="1">
          <mxGeometry x="180" y="200" width="120" height="60" as="geometry" />
        </mxCell>
        <mxCell id="exKizZ0AfnU7suD0H047-12" value="Proj_manager_id" style="rounded=1;whiteSpace=wrap;html=1;" vertex="1" parent="1">
          <mxGeometry x="40" y="310" width="120" height="60" as="geometry" />
        </mxCell>
        <mxCell id="exKizZ0AfnU7suD0H047-13" value="Architect_id" style="rounded=1;whiteSpace=wrap;html=1;" vertex="1" parent="1">
          <mxGeometry x="40" y="420" width="120" height="60" as="geometry" />
        </mxCell>
        <mxCell id="exKizZ0AfnU7suD0H047-14" value="Customer_id" style="rounded=1;whiteSpace=wrap;html=1;" vertex="1" parent="1">
          <mxGeometry x="40" y="520" width="120" height="60" as="geometry" />
        </mxCell>
        <mxCell id="exKizZ0AfnU7suD0H047-15" value="Contact_info" style="rounded=1;whiteSpace=wrap;html=1;" vertex="1" parent="1">
          <mxGeometry x="320" y="310" width="120" height="60" as="geometry" />
        </mxCell>
        <mxCell id="exKizZ0AfnU7suD0H047-16" value="Manager_name" style="rounded=1;whiteSpace=wrap;html=1;" vertex="1" parent="1">
          <mxGeometry x="180" y="310" width="120" height="60" as="geometry" />
        </mxCell>
        <mxCell id="exKizZ0AfnU7suD0H047-17" value="Customer_name" style="rounded=1;whiteSpace=wrap;html=1;" vertex="1" parent="1">
          <mxGeometry x="180" y="520" width="120" height="60" as="geometry" />
        </mxCell>
        <mxCell id="exKizZ0AfnU7suD0H047-18" value="Architect_name" style="rounded=1;whiteSpace=wrap;html=1;" vertex="1" parent="1">
          <mxGeometry x="180" y="420" width="120" height="60" as="geometry" />
        </mxCell>
        <mxCell id="exKizZ0AfnU7suD0H047-19" value="Contact_info" style="rounded=1;whiteSpace=wrap;html=1;" vertex="1" parent="1">
          <mxGeometry x="320" y="420" width="120" height="60" as="geometry" />
        </mxCell>
        <mxCell id="exKizZ0AfnU7suD0H047-20" value="Customer_surname" style="rounded=1;whiteSpace=wrap;html=1;" vertex="1" parent="1">
          <mxGeometry x="320" y="520" width="120" height="60" as="geometry" />
        </mxCell>
        <mxCell id="exKizZ0AfnU7suD0H047-21" value="Project managers table" style="text;html=1;align=center;verticalAlign=middle;resizable=0;points=[];autosize=1;strokeColor=none;fillColor=none;" vertex="1" parent="1">
          <mxGeometry x="30" y="280" width="150" height="30" as="geometry" />
        </mxCell>
        <mxCell id="exKizZ0AfnU7suD0H047-22" value="Architect table" style="text;html=1;align=center;verticalAlign=middle;resizable=0;points=[];autosize=1;strokeColor=none;fillColor=none;" vertex="1" parent="1">
          <mxGeometry x="30" y="388" width="100" height="30" as="geometry" />
        </mxCell>
        <mxCell id="exKizZ0AfnU7suD0H047-23" value="Customer table" style="text;html=1;align=center;verticalAlign=middle;resizable=0;points=[];autosize=1;strokeColor=none;fillColor=none;" vertex="1" parent="1">
          <mxGeometry x="30" y="488" width="100" height="30" as="geometry" />
        </mxCell>
        <mxCell id="exKizZ0AfnU7suD0H047-24" value="I have a table for each of the various people involved in a project.&lt;div&gt;These tables all have id columns that are referenced in the main&amp;nbsp;&lt;/div&gt;&lt;div&gt;projects table. This will help with data integrity and consistency.&amp;nbsp;&lt;/div&gt;&lt;div&gt;When the client&amp;nbsp;&lt;span style=&quot;background-color: initial;&quot;&gt;inserts data into the projects table,&amp;nbsp;&lt;/span&gt;&lt;/div&gt;&lt;div&gt;&lt;span style=&quot;background-color: initial;&quot;&gt;they will reference the id&#39;s of&amp;nbsp;&lt;/span&gt;&lt;span style=&quot;background-color: initial;&quot;&gt;the other tables,&amp;nbsp;&lt;/span&gt;&lt;/div&gt;&lt;div&gt;&lt;span style=&quot;background-color: initial;&quot;&gt;which ensures valid data is inserted.&amp;nbsp;&lt;/span&gt;&lt;/div&gt;" style="text;html=1;align=center;verticalAlign=middle;resizable=0;points=[];autosize=1;strokeColor=none;fillColor=none;" vertex="1" parent="1">
          <mxGeometry x="475" y="190" width="370" height="100" as="geometry" />
        </mxCell>
        <mxCell id="dG7ToS5eelezHS5ADSe5-1" value="Contractor_id" style="rounded=1;whiteSpace=wrap;html=1;" vertex="1" parent="1">
          <mxGeometry x="40" y="622" width="120" height="60" as="geometry" />
        </mxCell>
        <mxCell id="dG7ToS5eelezHS5ADSe5-2" value="Contractor_name" style="rounded=1;whiteSpace=wrap;html=1;" vertex="1" parent="1">
          <mxGeometry x="180" y="622" width="120" height="60" as="geometry" />
        </mxCell>
        <mxCell id="dG7ToS5eelezHS5ADSe5-3" value="Contact_info" style="rounded=1;whiteSpace=wrap;html=1;" vertex="1" parent="1">
          <mxGeometry x="320" y="622" width="120" height="60" as="geometry" />
        </mxCell>
        <mxCell id="dG7ToS5eelezHS5ADSe5-4" value="Contractors table" style="text;html=1;align=center;verticalAlign=middle;resizable=0;points=[];autosize=1;strokeColor=none;fillColor=none;" vertex="1" parent="1">
          <mxGeometry x="30" y="592" width="110" height="30" as="geometry" />
        </mxCell>
        <mxCell id="dG7ToS5eelezHS5ADSe5-5" value="Amount_paid" style="rounded=1;whiteSpace=wrap;html=1;" vertex="1" parent="1">
          <mxGeometry x="880" y="80" width="120" height="60" as="geometry" />
        </mxCell>
        <mxCell id="dG7ToS5eelezHS5ADSe5-6" value="Due_date" style="rounded=1;whiteSpace=wrap;html=1;" vertex="1" parent="1">
          <mxGeometry x="1020" y="80" width="120" height="60" as="geometry" />
        </mxCell>
        <mxCell id="dG7ToS5eelezHS5ADSe5-7" value="Customer_id" style="rounded=1;whiteSpace=wrap;html=1;" vertex="1" parent="1">
          <mxGeometry x="1860" y="78" width="120" height="60" as="geometry" />
        </mxCell>
        <mxCell id="dG7ToS5eelezHS5ADSe5-8" value="Architect_id" style="rounded=1;whiteSpace=wrap;html=1;" vertex="1" parent="1">
          <mxGeometry x="1720" y="78" width="120" height="60" as="geometry" />
        </mxCell>
        <mxCell id="dG7ToS5eelezHS5ADSe5-9" value="Proj_manager_id" style="rounded=1;whiteSpace=wrap;html=1;" vertex="1" parent="1">
          <mxGeometry x="1580" y="78" width="120" height="60" as="geometry" />
        </mxCell>
        <mxCell id="dG7ToS5eelezHS5ADSe5-10" value="Struct_engineer_id" style="rounded=1;whiteSpace=wrap;html=1;" vertex="1" parent="1">
          <mxGeometry x="1440" y="78" width="120" height="60" as="geometry" />
        </mxCell>
        <mxCell id="dG7ToS5eelezHS5ADSe5-11" value="Status" style="rounded=1;whiteSpace=wrap;html=1;" vertex="1" parent="1">
          <mxGeometry x="1160" y="80" width="120" height="60" as="geometry" />
        </mxCell>
        <mxCell id="dG7ToS5eelezHS5ADSe5-12" value="Contractor_id" style="rounded=1;whiteSpace=wrap;html=1;" vertex="1" parent="1">
          <mxGeometry x="2000" y="80" width="120" height="60" as="geometry" />
        </mxCell>
        <mxCell id="dG7ToS5eelezHS5ADSe5-13" value="Completion_date" style="rounded=1;whiteSpace=wrap;html=1;" vertex="1" parent="1">
          <mxGeometry x="1300" y="80" width="120" height="60" as="geometry" />
        </mxCell>
        <mxCell id="dG7ToS5eelezHS5ADSe5-14" value="Contact_info" style="rounded=1;whiteSpace=wrap;html=1;" vertex="1" parent="1">
          <mxGeometry x="460" y="520" width="120" height="60" as="geometry" />
        </mxCell>
        <mxCell id="dG7ToS5eelezHS5ADSe5-15" value="Business_name" style="rounded=1;whiteSpace=wrap;html=1;" vertex="1" parent="1">
          <mxGeometry x="600" y="518" width="120" height="60" as="geometry" />
        </mxCell>
        <mxCell id="dG7ToS5eelezHS5ADSe5-16" value="Is_bsuiness" style="rounded=1;whiteSpace=wrap;html=1;" vertex="1" parent="1">
          <mxGeometry x="740" y="520" width="120" height="60" as="geometry" />
        </mxCell>
        <mxCell id="dG7ToS5eelezHS5ADSe5-17" value="The customer table contains extra fields that capture&amp;nbsp;&lt;div&gt;either the customer name and surname if the customer&amp;nbsp;&lt;/div&gt;&lt;div&gt;is an individual OR the business name if the customer is a business.&lt;/div&gt;&lt;div&gt;The is_business col will contain boolean values (1: True OR 0: False)&amp;nbsp;&lt;/div&gt;&lt;div&gt;to indicate if the customer is a business or not&amp;nbsp;&lt;/div&gt;" style="text;html=1;align=center;verticalAlign=middle;resizable=0;points=[];autosize=1;strokeColor=none;fillColor=none;" vertex="1" parent="1">
          <mxGeometry x="885" y="502" width="390" height="90" as="geometry" />
        </mxCell>
      </root>
    </mxGraphModel>
  </diagram>
</mxfile>
